<?xml version="1.0" encoding="utf-8"?>
<!-- Generator: Adobe Illustrator 25.0.1, SVG Export Plug-In . SVG Version: 6.00 Build 0)  -->
<svg version="1.0" id="katman_1" xmlns="http://www.w3.org/2000/svg" xmlns:xlink="http://www.w3.org/1999/xlink" x="0px" y="0px"
	 viewBox="0 0 800 600" style="enable-background:new 0 0 800 600;" xml:space="preserve">
<style type="text/css">
	.st0{fill:#2DE370;}
	.st1{fill:#121619;}
	.st2{fill-rule:evenodd;clip-rule:evenodd;fill:#FFFFFF;}
</style>
<path class="st0" d="M298.3,98L146,249.5L399.7,502l253.7-252.4L501.1,98H298.3z"/>
<path class="st1" d="M291.2,196.4c59.9-60,157.1-60,217,0l51.8,51.8l-51.8,51.8c-59.9,60-157.1,60-217,0l-51.8-51.8L291.2,196.4z"/>
<path class="st2" d="M399.7,311.7c-35,0-63.4-27.7-63.4-61.8s28.4-61.8,63.4-61.8s63.4,27.7,63.4,61.8S434.8,311.7,399.7,311.7z"/>
<path class="st1" d="M399.7,274.9c-14.7,0-26.7-12-26.7-26.7c0-14.8,12-26.7,26.7-26.7c14.7,0,26.7,12,26.7,26.7
	C426.4,263,414.5,274.9,399.7,274.9z"/>
</svg>
